<?xml version="1.0" encoding="UTF-8"?>
<svg id="Layer_1" xmlns="http://www.w3.org/2000/svg" version="1.1" viewBox="0 0 504 144">
  <!-- Generator: Adobe Illustrator 30.0.0, SVG Export Plug-In . SVG Version: 2.1.1 Build 123)  -->
  <defs>
    <style>
      .st0 {
        fill: #ec008c;
      }

      .st1 {
        fill: #2e3192;
      }
    </style>
  </defs>
  <path class="st0" d="M196.46,76.91c.76,1.28,1.42,2.41,2.02,3.42,1.25-2.14,3.56-5.18,6.64-7.71l-18.45-32.66c-1.92-3.4-4.61-5.1-8.26-5.1h-.96c-4.41,0-4.8,1.06-2.5,5.1l21.5,36.95ZM255.19,34.86h-.96c-3.65,0-6.34,1.7-8.26,5.1l-21.11,37.38c-2.88,5.1-5.57,7.65-8.45,7.65-.03,0-.06,0-.1,0-.83-.02-1.66-.26-2.49-.7-1.23,1.06-2.54,2.78-3.87,5.13l-1.59,2.82c2.28,1.54,4.95,2.64,7.94,2.64,9.95,0,16.53-12.21,16.53-12.21h0c1.11-1.65,2.29-3.55,3.53-5.75l21.31-36.95c2.3-4.04,1.92-5.1-2.49-5.1Z"/>
  <path class="st1" d="M4.53,41.77c0-2.5.57-3.26,3.45-3.84l12.28-1.34,1.92-21.5c.58-2.88,1.34-3.45,3.84-3.45h.96c2.88,0,3.45.96,3.45,3.45v21.5h34.36c3.65,0,4.41,1.15,4.41,4.41v.77c0,3.26-.77,4.41-4.41,4.41H30.44v52.98c0,17.08,6.91,23.42,19.77,23.42,6.72,0,12.67-.77,18.04-2.31,2.88-.96,4.41.38,4.41,3.65v.77c0,3.26-1.15,4.41-4.41,5.38-5.38,1.53-11.32,2.3-17.85,2.3-20.15,0-30.13-11.13-30.13-33.21v-52.98H7.98c-2.5,0-3.45-.96-3.45-3.46v-.96ZM164.02,83.04c-.58,3.65-1.35,4.61-4.99,4.61h-61.42v6.72c0,20.73,9.21,28.41,31.67,28.41,10.17,0,19.39-1.34,27.83-4.22,3.07-.96,4.22-.19,4.22,3.46v1.15c0,3.26-.58,3.65-4.22,4.99-7.87,2.88-17.08,4.22-27.64,4.22-28.6,0-42.03-11.52-42.03-39.35v-18.81c0-26.3,13.05-39.35,38.96-39.35,24.38,0,38.2,12.48,38.2,37.04,0,4.03-.19,7.68-.58,11.13ZM97.61,78.62h57.2v-7.68c0-17.85-9.6-26.87-28.6-26.87s-28.6,9.02-28.6,26.87v7.68ZM287.05,126.03c0,3.65-.96,4.6-4.61,4.6h-.96c-3.65,0-4.6-.96-4.6-4.6v-56.43c0-23.23,12.86-34.74,38.58-34.74,27.64,0,38.58,12.48,38.58,34.74v56.43c0,3.65-.96,4.6-4.6,4.6h-.96c-3.65,0-4.61-.96-4.61-4.6v-56.43c0-16.89-6.91-25.14-28.41-25.14s-28.41,8.25-28.41,25.14v56.43ZM447.5,102.23c0,21.69-12.09,30.13-39.54,30.13-19.19,0-33.78-8.64-33.78-28.02s12.48-27.45,39.16-27.45h23.99v-13.24c0-14.4-9.41-19.58-27.06-19.58-9.02,0-16.7.96-23.03,2.69-3.26.96-4.23.19-4.23-3.46v-1.34c0-3.26.96-4.22,4.23-4.99,5.95-1.35,13.43-2.11,22.45-2.11,25.14,0,37.81,9.6,37.81,28.79v38.58ZM437.33,85.34h-23.61c-20.54,0-29.36,4.99-29.36,19,0,12.47,7.87,18.81,23.61,18.81,20.54,0,29.37-4.61,29.37-21.3v-16.51ZM199.92,82.79h0c-.95,1.52-2.05,3.39-3.47,5.8l-21.5,36.95c-2.3,4.04-1.92,5.1,2.5,5.1h.96c3.65,0,6.34-1.7,8.26-5.1l21.11-37.38c2.85-5.04,5.69-7.59,8.54-7.64v-9.89c-9.95,0-16.4,12.16-16.4,12.16ZM218.93,81.19c1.16-1.06,2.42-2.75,3.74-5.1l1.6-2.82c-2.29-1.54-4.98-2.64-7.96-2.64v9.89s.07,0,.11,0c.85,0,1.68.23,2.51.67ZM236.38,88.59c-.71-1.25-1.4-2.4-2.07-3.48-1.12,1.78-3.44,5.07-6.77,7.8l18.43,32.63c1.92,3.4,4.61,5.1,8.25,5.1h.96c4.41,0,4.8-1.06,2.49-5.1l-21.3-36.95Z"/>
  <path class="st1" d="M481.31,30.82V11.79h3.79l4.5,13.47c.42,1.25.72,2.19.91,2.82.22-.69.55-1.71,1.01-3.05l4.55-13.24h3.39v19.03h-2.43v-15.93l-5.53,15.93h-2.27l-5.5-16.2v16.2h-2.43ZM469.99,30.82V14.04h-6.27v-2.25h15.08v2.25h-6.3v16.78h-2.52Z"/>
</svg>